<svg xmlns="http://www.w3.org/2000/svg" viewBox="0 0 800 600" fill="none">
  <style>
    .st0{fill:#FFFFFF;}
    .st1{fill:#E6E6E6;}
    .st2{fill:#4285F4;}
    .st3{fill:#34A853;}
    .st4{fill:#FBBC05;}
    .st5{opacity:0.2;fill:#FFFFFF;}
  </style>
  <g>
    <!-- 배경 요소 -->
    <circle class="st5" cx="400" cy="300" r="250" />
    
    <!-- 디바이스 -->
    <rect class="st1" x="300" y="180" width="200" height="150" rx="8" />
    <rect class="st0" x="320" y="200" width="160" height="110" rx="4" />
    
    <!-- 노트북 하단 -->
    <path class="st1" d="M280,330 L520,330 L540,360 L260,360 Z" />
    
    <!-- AI 요소 상단 -->
    <circle class="st2" cx="400" cy="150" r="40" />
    <circle class="st0" cx="400" cy="150" r="15" />
    
    <!-- 연결선 -->
    <path class="st2" d="M400,190 L400,230" stroke-width="4" stroke="#4285F4" />
    
    <!-- 서브 노드 -->
    <circle class="st3" cx="320" cy="250" r="20" />
    <circle class="st4" cx="480" cy="250" r="20" />
    
    <!-- 연결선 서브 -->
    <path d="M320,250 L380,250" stroke-width="3" stroke="#34A853" stroke-dasharray="5,5" />
    <path d="M420,250 L480,250" stroke-width="3" stroke="#FBBC05" stroke-dasharray="5,5" />
    
    <!-- 데이터 흐름 표현 -->
    <circle class="st4" cx="350" cy="400" r="30" />
    <circle class="st2" cx="450" cy="400" r="30" />
    
    <!-- 연결 그래프 -->
    <path d="M330,390 L470,390" stroke-width="2" stroke="#E6E6E6" />
    <path d="M330,410 L470,410" stroke-width="2" stroke="#E6E6E6" />
    <path d="M400,370 L400,430" stroke-width="2" stroke="#E6E6E6" />
    
    <!-- 추가 장식 요소 -->
    <circle class="st2" cx="250" cy="200" r="10" opacity="0.7" />
    <circle class="st3" cx="270" cy="230" r="5" opacity="0.7" />
    <circle class="st4" cx="230" cy="250" r="8" opacity="0.7" />
    
    <circle class="st2" cx="550" cy="200" r="10" opacity="0.7" />
    <circle class="st3" cx="530" cy="230" r="5" opacity="0.7" />
    <circle class="st4" cx="570" cy="250" r="8" opacity="0.7" />
  </g>
</svg> 